General                          : ChattChitto RG - Movies

Complete name                    : Valentine's Day 2010 BRRip.mp4
Format                           : MPEG-4
Format profile                   : Base Media
Codec ID                         : isom
File size                        : 2.31 GiB
Duration                         : 2h 4mn
Overall bit rate                 : 2 653 Kbps
Encoded date                     : UTC 2010-05-04 05:04:26

Video
==========
ID                               : 1
Format                           : AVC
Format/Info                      : Advanced Video Codec
Format profile                   : High@L3.1
Format settings, CABAC           : Yes
Format settings, ReFrames        : 3 frames
Codec ID                         : avc1
Codec ID/Info                    : Advanced Video Coding
Duration                         : 2h 4mn
Bit rate mode                    : Variable
Bit rate                         : 2 300 Kbps
Maximum bit rate                 : 9 988 Kbps
Width                            : 1 280 pixels
Height                           : 688 pixels
Display aspect ratio             : 1.85:1
Frame rate mode                  : Constant
Frame rate                       : 23.976 fps
Resolution                       : 8 bits
Colorimetry                      : 4:2:0
Scan type                        : Progressive
Bits/(Pixel*Frame)               : 0.109
Stream size                      : 2.00 GiB (87%)
Writing library                  : x264 core 76 r1271 496d79d
Encoded date                     : UTC 2010-05-04 04:51:25

Audio
==========
ID                               : 2
Format                           : AAC
Format/Info                      : Advanced Audio Codec
Format version                   : Version 4
Format profile                   : LC
Format settings, SBR             : No
Codec ID                         : 40
Duration                         : 2h 4mn
Bit rate mode                    : Variable
Bit rate                         : 352.8 Kbps
Maximum bit rate                 : 420 Kbps
Channel(s)                       : 6 channels
Channel positions                : Front: L C R, Side: L R, LFE
Sampling rate                    : 48.0 KHz
Stream size                      : 312 MiB (13%)
Encoded date                     : UTC 2010-05-04 05:05:26

Subtitles                        : English | French



----------------------------------------------------
IMDB Link: http://www.imdb.com/title/tt0817230/
----------------------------------------------------


Screen Shots:
==============
http://bayimg.com/DAMnOaaCf
http://bayimg.com/dAMnnaacF
http://bayimg.com/DAMNmaacf
http://bayimg.com/DamNkAACf
http://bayimg.com/dAmnJAaCf



Plot:
======
A diverse group of Los Angelenos navigate their way through romance and heartbreak over the course of one Valentine's Day.




Release Info:
==============
original name .... : Valentine's Day 2010 BRRip.mp4
ripper.............: SECTOR7
encoder............: Recalled2Life (R2L)
video codec........: H264/.MP4
video bitrate......: 2300 Kbps
audio codec........: AAC-LC
aspect ratio.......: 1.85:1
resolution.........: 1280 x 688
genre..............: Comedy | Romance
runtime............: 2h 4mn
language...........: English
MPAA rating........: PG-13
subtitles..........: English | French
sample.............: Yes [15.7 MB]
2ch Audio..........: 2ch Audio for XBox Viewers  
Compatibility .....: XBox 360 | PS3 | WD Live   



Source:
========
Valentines Day 2010 1080p BluRay x264-SECTOR7 [8.71 GB]


Notes:
=======
ChattChitto RG Encourages Burning this Film with ConvertXtoDVD.
XBox 360 | PS3 | WD Live - Compatible
Enhanced and Filtered for your viewing pleasure ;)